<?xml version="1.0" encoding="UTF-8"?> <svg xmlns="http://www.w3.org/2000/svg" width="209" height="45" viewBox="0 0 209 45" fill="none"><path d="M44.6949 30.9474V26.2144H52.4531V22.3841H44.6949V17.8951H53.2094V14.016H40.6206V34.8021H53.3558V30.923H44.6949V30.9474Z" fill="white"></path><path d="M55.5026 20.2128V34.8021H59.2597V20.2128H55.5026ZM57.3812 13.2841C56.1125 13.2841 55.0391 14.3575 55.0391 15.6262C55.0391 16.8948 56.1125 17.9683 57.3812 17.9683C58.6498 17.9683 59.7233 16.8948 59.7233 15.6262C59.7233 14.3575 58.6498 13.2841 57.3812 13.2841Z" fill="white"></path><path d="M73.5564 20.2128V22.6037L72.7513 21.6034C71.7754 20.3836 70.3604 19.7493 68.5794 19.7493C64.5539 19.7493 61.4067 23.0184 61.4067 27.1659C61.4067 31.3134 64.5539 34.5825 68.5794 34.5825C70.3604 34.5825 71.7754 33.9726 72.7513 32.7284L73.5564 31.7281V34.4118C73.5564 36.8027 72.117 38.1689 69.6041 38.1689C67.4816 38.1689 66.5057 37.2906 65.9202 36.3879L62.7242 38.2177C64.066 40.2426 66.4325 41.3649 69.4577 41.3649C73.0196 41.3649 77.1915 39.5351 77.1915 34.4118V20.2128H73.5564ZM69.3601 31.2402C66.896 31.2402 65.1639 29.5812 65.1639 27.1903C65.1639 24.7994 66.896 23.1404 69.3601 23.1404C71.8242 23.1404 73.5564 24.7994 73.5564 27.1903C73.5564 29.5812 71.8242 31.2402 69.3601 31.2402Z" fill="white"></path><path d="M88.7068 19.7736C86.9258 19.7736 85.4376 20.408 84.6325 21.4814L83.8274 22.6037V14.016H80.0703V34.8021H83.8274V26.7999C83.8274 24.531 85.0717 23.1648 87.1698 23.1648C89.0727 23.1648 90.317 24.4578 90.317 26.434V34.8265H94.0741V25.7509C94.0741 21.6278 91.3905 19.7736 88.7068 19.7736Z" fill="white"></path><path d="M104.955 23.7747V20.2128H101.759V16.0409L98.0022 17.1632V20.2128H95.5137V23.7747H98.0022V29.7032C98.0022 31.7281 98.4169 33.0455 99.2708 33.8262C100.32 34.7533 102.125 35.0949 104.931 34.8509V31.5085C103.638 31.5573 102.76 31.4598 102.223 30.9718C101.906 30.6791 101.735 30.2399 101.735 29.7032V23.7747H104.955Z" fill="white"></path><path d="M124.082 14.016L117.934 24.0675L111.786 14.016H107.517V34.8021H111.566V21.0667L117.885 31.4109H117.934L124.253 21.0667V34.8265H128.303V14.016H124.082Z" fill="white"></path><path d="M145.844 27.5075C145.844 23.0916 142.648 19.7737 138.428 19.7737C133.914 19.7737 130.621 23.0184 130.621 27.5075C130.621 32.0697 133.963 35.2413 138.769 35.2413C141.38 35.2413 143.429 34.363 144.868 32.6308L141.892 30.923C141.136 31.6061 140.013 31.9965 138.842 31.9965C136.695 31.9965 135.305 31.167 134.695 29.5324L134.475 28.9225H145.747C145.82 28.4833 145.844 27.9954 145.844 27.5075ZM134.427 26.3608L134.573 25.7997C135.061 24.0187 136.427 23.0184 138.379 23.0184C140.257 23.0184 141.599 24.0187 142.087 25.7997L142.234 26.3608H134.427Z" fill="white"></path><path d="M159.092 14.016V22.4329L158.311 21.5302C157.311 20.3836 155.871 19.798 154.041 19.798C150.138 19.798 147.088 23.1892 147.088 27.5319C147.088 31.8745 150.138 35.2657 154.041 35.2657C155.871 35.2657 157.311 34.6801 158.311 33.5335L159.092 32.6308V34.8265H162.849V14.016H159.092ZM154.944 31.7525C152.504 31.7525 150.797 30.0203 150.797 27.5319C150.797 25.0434 152.504 23.3112 154.944 23.3112C157.384 23.3112 159.092 25.0434 159.092 27.5319C159.092 30.0203 157.384 31.7525 154.944 31.7525Z" fill="white"></path><path d="M165.752 20.2128V34.8021H169.509V20.2128H165.752ZM167.631 13.2841C166.362 13.2841 165.289 14.3575 165.289 15.6262C165.289 16.8948 166.362 17.9683 167.631 17.9683C168.899 17.9683 169.973 16.8948 169.973 15.6262C169.973 14.3575 168.899 13.2841 167.631 13.2841Z" fill="white"></path><path d="M182.513 29.9959C181.854 30.9718 180.683 31.5573 179.341 31.5573C177.048 31.5573 175.389 29.8496 175.389 27.5075C175.389 25.1654 177.048 23.4576 179.341 23.4576C180.683 23.4576 181.854 24.0431 182.513 25.019L185.782 23.116C184.44 21.0423 182.025 19.7493 179.39 19.7493C174.974 19.7493 171.632 23.0672 171.632 27.4831C171.632 31.8989 174.974 35.2169 179.39 35.2169C182.025 35.2169 184.44 33.9238 185.782 31.8257L182.513 29.9959Z" fill="white"></path><path d="M198.249 20.2128V22.4085L197.468 21.5058C196.468 20.3592 195.028 19.7737 193.199 19.7737C189.295 19.7737 186.246 23.1648 186.246 27.5075C186.246 31.8501 189.295 35.2413 193.199 35.2413C195.028 35.2413 196.468 34.6557 197.468 33.5091L198.249 32.6064V34.8021H202.006V20.2128H198.249ZM194.126 31.7525C191.686 31.7525 189.978 30.0203 189.978 27.5319C189.978 25.0434 191.686 23.3112 194.126 23.3112C196.565 23.3112 198.273 25.0434 198.273 27.5319C198.249 30.0203 196.565 31.7525 194.126 31.7525Z" fill="white"></path><path d="M204.934 13.0889V34.8265H208.691V13.0889H204.934Z" fill="white"></path><path d="M15.8093 23.5552L8.9782 16.724C5.14789 12.8937 5.14789 6.64814 8.9782 2.81784C12.7353 -0.939279 18.8833 -0.939279 22.6404 2.81784L22.7868 2.96422C24.5922 4.76959 25.6169 7.20927 25.6169 9.77094C25.6169 12.3326 24.5922 14.7479 22.7624 16.5777L15.8093 23.5552ZM15.8093 3.81811C14.3211 3.81811 12.8085 4.37924 11.6863 5.52589C9.34415 7.86799 9.34415 11.6739 11.6863 14.016L15.8093 18.1391L20.0788 13.8696C21.1766 12.7718 21.7865 11.3079 21.7865 9.77094C21.7865 8.23394 21.1766 6.77013 20.0788 5.67227L19.9324 5.52589C18.7857 4.37924 17.2975 3.81811 15.8093 3.81811Z" fill="white"></path><path d="M15.8092 45C11.7837 45 7.7338 43.463 4.6842 40.389C1.65899 37.3882 0 33.4115 0 29.142C0 24.897 1.65899 20.8959 4.6598 17.8707L15.7848 6.74573L18.4928 9.45378L15.8092 12.1618L7.36785 20.6031C2.65926 25.3117 2.65926 32.9967 7.36785 37.7053C12.0033 42.3407 19.5663 42.3407 24.2261 37.7053L24.2749 37.6565C28.9591 32.9723 28.9591 25.3361 24.2749 20.6519L20.1274 16.5045L22.8355 13.7964L26.9829 17.9439C33.1553 24.1163 33.1553 34.1922 26.9829 40.3646L26.9341 40.4134C23.8601 43.4874 19.8346 45 15.8092 45Z" fill="white"></path><path d="M15.8092 36.949C13.7355 36.949 11.7837 36.1439 10.3199 34.6801C7.27031 31.6305 7.27031 26.6536 10.3199 23.604L13.028 26.312C11.4666 27.8734 11.4666 30.4107 13.028 31.9721C13.7599 32.704 14.7601 33.1187 15.8092 33.1187C16.8583 33.1187 17.8342 32.704 18.5905 31.9721C20.1519 30.4107 20.1519 27.8734 18.6149 26.3364L21.3229 23.6284C24.3725 26.678 24.3725 31.6061 21.3229 34.6557C19.8103 36.1439 17.8585 36.949 15.8092 36.949Z" fill="white"></path><path d="M17.144 19.4766L14.4355 22.185L18.5758 26.3252L21.2842 23.6168L17.144 19.4766Z" fill="white"></path><path d="M14.4379 19.4982L10.3149 23.6212L13.0234 26.3296L17.1463 22.2066L14.4379 19.4982Z" fill="white"></path></svg> 